<svg  viewBox="0 0 28 28" fill="none" xmlns="http://www.w3.org/2000/svg">
<g clip-path="url(#clip0_13_103)">
<path d="M27.4263 12.2394C26.8513 11.4456 25.9256 10.9825 24.9456 10.9994H24.6256V8.99876C24.6256 7.34126 23.2825 5.99751 21.6256 5.99751C21.6056 5.99751 21.585 5.99751 21.565 5.99751H15.0838C14.8413 5.99626 14.6056 5.91501 14.4138 5.76751L10.4131 2.64689C9.86563 2.22501 9.19375 1.99689 8.5025 1.99689H3.06063C1.40375 1.96376 0.0337518 3.28001 1.83119e-06 4.93751C1.83119e-06 4.95751 1.83119e-06 4.97814 1.83119e-06 4.99814V23.0019C-0.000623169 23.5556 0.158752 24.0975 0.460002 24.5625C1.0225 25.4569 2.00438 26.0006 3.06063 26.0031H22.065C23.4069 26.0369 24.6081 25.175 25.0056 23.8925L27.8663 14.8906C28.1456 13.9869 27.9825 13.005 27.4263 12.24V12.2394ZM2.00063 4.99814C1.99938 4.44564 2.44688 3.99689 2.99875 3.99626C3.01938 3.99626 3.04 3.99626 3.06063 3.99814H8.50188C8.7475 3.99814 8.98688 4.07876 9.18188 4.22814L13.1825 7.34876C13.7263 7.77064 14.395 7.99876 15.0831 7.99876H21.5644C22.1156 7.96564 22.5894 8.38564 22.6225 8.93689C22.6238 8.95751 22.6244 8.97814 22.6244 8.99876V10.9994H6.62125C5.29063 10.9794 4.10563 11.8388 3.71063 13.11L2 18.5413V4.99814H2.00063ZM26.0056 14.29L23.145 23.2919C23.0131 23.7294 22.6013 24.0213 22.145 24.0019H3.14063C2.915 24.0019 2.695 23.9313 2.51063 23.8019L5.71125 13.7094C5.84313 13.2719 6.255 12.98 6.71125 12.9994H24.9456C25.2875 12.9969 25.61 13.1563 25.8156 13.4294C26.0088 13.6713 26.0788 13.9888 26.0056 14.2894V14.29Z" fill="white"/>
</g>
<defs>
<clipPath id="clip0_13_103">
<rect width="28" height="28" fill="white"/>
</clipPath>
</defs>
</svg>
