<svg width="28" height="28" viewBox="0 0 28 28" fill="none" xmlns="http://www.w3.org/2000/svg">
<g clip-path="url(#clip0_13_89)">
<path d="M27.0025 21.5381H17.0294V20.5044C17.0294 20.1994 16.8931 19.9156 16.655 19.7256L14.6231 18.1006C14.2563 17.8069 13.7437 17.8069 13.3769 18.1006L11.345 19.7262C11.1069 19.9169 10.9706 20.2006 10.9706 20.505V21.5387H0.9975C0.4475 21.5387 0 21.9862 0 22.5362C0 23.0862 0.4475 23.5337 0.9975 23.5337H10.9706V25.3806C10.9706 25.9306 11.4181 26.3781 11.9681 26.3781H16.0312C16.5812 26.3781 17.0287 25.9306 17.0287 25.3806V23.5337H27.0019C27.5519 23.5337 27.9994 23.0862 27.9994 22.5362C27.9994 21.9862 27.5519 21.5387 27.0019 21.5387L27.0025 21.5381ZM12.9663 24.3825V20.9837L14 20.1569L15.0337 20.9837V24.3825H12.9656H12.9663Z" fill="white"/>
<path d="M27.1388 6.34875H23.3213L21.9469 2.24188C21.8331 1.87625 21.5169 1.63313 21.1425 1.6225C20.7663 1.61188 20.4369 1.83125 20.3044 2.18188L16.7375 11.63L14.9906 7.41125C14.8663 7.11063 14.5875 6.90625 14.2631 6.87813C13.9363 6.84938 13.635 6.9975 13.4587 7.275L12.6112 8.60563L11.0994 2.49188C10.9944 2.0025 10.5969 1.78375 10.2469 1.78375C10.245 1.78375 10.2431 1.78375 10.2413 1.78375C9.88688 1.78625 9.48687 2.00313 9.3925 2.4825L7.52313 11.8444L6.04875 6.51125C5.96625 6.10688 5.61 5.81438 5.1975 5.81438H0.86125C0.295625 5.81438 0 6.25188 0 6.68375C0 7.11563 0.295625 7.55313 0.86125 7.55313H4.53687L6.825 15.8269C6.93125 16.2094 7.26375 16.46 7.6575 16.46C7.66875 16.46 7.68062 16.46 7.69187 16.4594C8.1025 16.4444 8.43188 16.165 8.51188 15.7638L10.3363 6.63563L11.41 10.9863C11.4937 11.3288 11.775 11.5844 12.1256 11.6369C12.4787 11.6894 12.8162 11.525 13.0031 11.2113L14.0231 9.61125L15.9731 14.3156C16.1094 14.6475 16.4131 14.8519 16.7687 14.8519C16.7737 14.8519 16.7788 14.8519 16.7838 14.8519C17.145 14.8463 17.4594 14.6269 17.5837 14.2931L21.065 5.075L21.875 7.49438C21.9944 7.84875 22.325 8.0875 22.6981 8.0875H27.1388C27.7044 8.0875 28 7.65 28 7.21813C28 6.78625 27.7044 6.34875 27.1388 6.34875Z" fill="white"/>
</g>
<defs>
<clipPath id="clip0_13_89">
<rect width="28" height="28" fill="white"/>
</clipPath>
</defs>
</svg>
