<svg width="28" height="28" viewBox="0 0 28 28" fill="none" xmlns="http://www.w3.org/2000/svg">
<g clip-path="url(#clip0_5_84)">
<path d="M27.71 6.29001L21.71 0.290011C21.5212 0.103136 21.2656 -0.0012389 21 1.10995e-05H9C7.34312 1.10995e-05 6 1.34314 6 3.00001V5.00001C6 5.55251 6.4475 6.00001 7 6.00001C7.5525 6.00001 8 5.55251 8 5.00001V3.00001C8 2.44751 8.4475 2.00001 9 2.00001H20V5.00001C20 6.65689 21.3431 8.00001 23 8.00001H26V25C26 25.5525 25.5525 26 25 26H13C12.4475 26 12 26.4475 12 27C12 27.5525 12.4475 28 13 28H25C26.6569 28 28 26.6569 28 25V7.00001C28.0012 6.73439 27.8969 6.47876 27.71 6.29001ZM22 5.00001V3.41001L24.59 6.00001H23C22.4475 6.00001 22 5.55251 22 5.00001Z" fill="white"/>
<path d="M12 14C12.0069 10.6862 9.32564 7.99436 6.01189 7.98811C2.69814 7.98124 0.00688941 10.6619 1.44139e-05 13.9756C-0.00373559 15.6875 0.724389 17.3187 2.00001 18.46V27C2.00189 27.4037 2.24689 27.7669 2.62001 27.92C2.99251 28.0769 3.42251 27.9937 3.71001 27.71L6.00002 25.41L8.29002 27.71C8.47877 27.8969 8.73439 28.0012 9.00002 28C9.13127 28.0031 9.26127 27.9762 9.38002 27.92C9.75314 27.7669 9.99814 27.4037 10 27V18.46C11.2694 17.3244 11.9963 15.7031 12 14ZM8.00002 24.59L6.71002 23.29C6.32127 22.8981 5.68814 22.895 5.29564 23.2844C5.29377 23.2862 5.29189 23.2881 5.29001 23.29L4.00001 24.59V19.65C5.29251 20.1169 6.70752 20.1169 8.00002 19.65V24.59ZM6.00002 18C3.79064 18 2.00001 16.2094 2.00001 14C2.00001 11.7906 3.79064 9.99999 6.00002 9.99999C8.20939 9.99999 10 11.7906 10 14C10 16.2094 8.20939 18 6.00002 18Z" fill="white"/>
<path d="M17 6H12C11.4475 6 11 6.4475 11 7C11 7.5525 11.4475 8 12 8H17C17.5525 8 18 7.5525 18 7C18 6.4475 17.5525 6 17 6Z" fill="white"/>
<path d="M23 11H15C14.4475 11 14 11.4475 14 12C14 12.5525 14.4475 13 15 13H23C23.5525 13 24 12.5525 24 12C24 11.4475 23.5525 11 23 11Z" fill="white"/>
<path d="M23 16H15C14.4475 16 14 16.4475 14 17C14 17.5525 14.4475 18 15 18H23C23.5525 18 24 17.5525 24 17C24 16.4475 23.5525 16 23 16Z" fill="white"/>
<path d="M23 21H13C12.4475 21 12 21.4475 12 22C12 22.5525 12.4475 23 13 23H23C23.5525 23 24 22.5525 24 22C24 21.4475 23.5525 21 23 21Z" fill="white"/>
</g>
<defs>
<clipPath id="clip0_5_84">
<rect width="28" height="28" fill="white"/>
</clipPath>
</defs>
</svg>
