<svg width="28" height="28" viewBox="0 0 28 28" fill="none" xmlns="http://www.w3.org/2000/svg">
<path d="M14 11.9875C16.7453 11.9875 18.9766 9.75624 18.9766 7.01093C18.9766 4.26561 16.7453 2.03436 14 2.03436C11.2547 2.03436 9.02344 4.26561 9.02344 7.01093C9.02344 9.75624 11.2547 11.9875 14 11.9875ZM14 3.89921C15.7172 3.89921 17.1172 5.29921 17.1172 7.01639C17.1172 8.73358 15.7172 10.1336 14 10.1336C12.2828 10.1336 10.8828 8.73358 10.8828 7.01639C10.8828 5.29921 12.2828 3.89921 14 3.89921Z" fill="white"/>
<path d="M5.47422 14.0656C7.54141 14.0656 9.22578 12.3812 9.22578 10.3141C9.22578 8.24688 7.54141 6.5625 5.47422 6.5625C3.40703 6.5625 1.72266 8.24688 1.72266 10.3141C1.72266 12.3812 3.40703 14.0656 5.47422 14.0656ZM3.58203 10.3195C3.58203 9.275 4.42969 8.42187 5.47422 8.42187C6.51875 8.42187 7.36641 9.26953 7.36641 10.3141C7.36641 11.3586 6.51875 12.2117 5.47422 12.2117C4.42969 12.2117 3.58203 11.3641 3.58203 10.3195Z" fill="white"/>
<path d="M4.13984 16.6578H5.39219C5.90625 16.6578 6.32188 16.2422 6.32188 15.7281C6.32188 15.214 5.90625 14.7984 5.39219 14.7984H3.94297V14.8093C2.89297 14.875 1.91953 15.3289 1.18125 16.0945C0.421094 16.882 0 17.9211 0 19.0148V23.3953C0 24.8117 1.15391 25.9656 2.57031 25.9656H5.39219C5.90625 25.9656 6.32188 25.55 6.32188 25.0359C6.32188 24.5218 5.90625 24.1007 5.39219 24.1007H2.57031C2.17656 24.1007 1.85938 23.7836 1.85938 23.3898V19.0093C1.85938 17.7515 2.88203 16.6961 4.13984 16.6578Z" fill="white"/>
<path d="M22.5258 14.0711C24.593 14.0711 26.2774 12.3867 26.2774 10.3195C26.2774 8.25231 24.593 6.56793 22.5258 6.56793C20.4586 6.56793 18.7742 8.25231 18.7742 10.3195C18.7742 12.3867 20.4586 14.0711 22.5258 14.0711ZM20.6336 10.3195C20.6336 9.27496 21.4813 8.42731 22.5258 8.42731C23.5703 8.42731 24.418 9.27496 24.418 10.3195C24.418 11.364 23.5703 12.2117 22.5258 12.2117C21.4813 12.2117 20.6336 11.364 20.6336 10.3195Z" fill="white"/>
<path d="M26.8187 16.089C26.0804 15.3289 25.107 14.875 24.057 14.8093V14.7984H22.6078C22.0937 14.7984 21.6781 15.214 21.6781 15.7281C21.6781 16.2422 22.0937 16.6578 22.6078 16.6578H23.8547C25.1125 16.6961 26.1406 17.7515 26.1406 19.0093V23.3898C26.1406 23.7836 25.8234 24.1007 25.4297 24.1007H22.6078C22.0937 24.1007 21.6781 24.5164 21.6781 25.0304C21.6781 25.5445 22.0937 25.9601 22.6078 25.9601H25.4297C26.8461 25.9601 28 24.8062 28 23.3898V19.0093C28 17.9156 27.5789 16.882 26.8187 16.089Z" fill="white"/>
<path d="M20.0922 14.9789L20.0867 14.9679C19.3758 13.6062 17.8172 12.6929 16.1984 12.6929H11.7906C10.1773 12.6929 8.61875 13.6062 7.90234 14.9679L7.89687 14.9789C7.51406 15.8976 7.58516 17.0297 7.59063 17.1172V18.9H7.57422V23.3898C7.57422 24.8062 8.72812 25.9601 10.1445 25.9601H17.8227C19.2391 25.9601 20.393 24.8062 20.393 23.3898V19.0093L20.3875 18.9V17.1172C20.4039 17.0297 20.475 15.8976 20.0922 14.9789ZM9.44453 18.9054V16.9093C9.44453 15.6132 10.5 14.5578 11.7961 14.5578H16.2039C17.5 14.5578 18.5555 15.6132 18.5555 16.9093V18.9054H18.5445V23.4828C18.5008 23.8328 18.2 24.1062 17.8391 24.1062H10.1609C9.76719 24.1062 9.45 23.789 9.45 23.3953V19.0148L9.44453 18.9054Z" fill="white"/>
</svg>
