<svg width="144" height="223" viewBox="0 0 144 223" fill="none" xmlns="http://www.w3.org/2000/svg">
<g clip-path="url(#clip0_27_895)">
<path d="M24.5779 83.701C24.5779 83.701 11.6869 36.6329 30.1513 25.982C48.6157 15.3311 86.592 5.02409 106.798 25.982C127.004 46.9399 129.097 74.082 129.097 74.082C129.097 74.082 144.252 73.0501 143.207 89.8852C142.162 106.72 131.709 109.126 125.091 109.811C125.091 109.811 118.124 132.83 95.8255 137.641L96.8705 169.594C96.8705 169.594 110.807 178.698 128.923 197.768C147.039 216.835 135.889 222.849 135.889 222.849H7.68103C7.68103 222.849 -0.681584 218.897 7.68103 204.984C16.0437 191.069 37.2947 168.909 37.2947 168.909L34.508 122.182C34.508 122.182 -0.855752 131.801 0.0150911 96.7573C0.0150911 96.7573 0.189259 77.0021 24.5779 83.701Z" fill="white"/>
<path d="M61.5244 71.3091C63.1731 71.0531 64.143 68.5087 63.6908 65.626C63.2385 62.7433 61.5353 60.6139 59.8866 60.8698C58.2378 61.1258 57.2679 63.6702 57.7201 66.5529C58.1724 69.4356 59.8756 71.565 61.5244 71.3091Z" fill="black"/>
<path d="M110.302 66.0722C111.951 65.8163 112.921 63.2719 112.468 60.3892C112.016 57.5065 110.313 55.3771 108.664 55.633C107.015 55.889 106.045 58.4333 106.498 61.316C106.95 64.1988 108.653 66.3282 110.302 66.0722Z" fill="black"/>
<path d="M91.2088 56.3883C91.2088 56.3883 87.1146 56.2176 86.5062 69.4446C85.8954 82.6717 94.6947 81.2983 94.6947 81.2983C94.6947 81.2983 101.924 81.3836 99.0489 67.7272C96.1738 54.0708 91.2088 56.3883 91.2088 56.3883Z" fill="black"/>
<path d="M86.5644 108.069C68.8143 108.069 62.4584 98.7384 62.1757 98.3091C61.8854 97.8672 62.0141 97.2746 62.4609 96.9859C62.9077 96.7022 63.5085 96.8252 63.8013 97.2671C63.9048 97.4228 71.0886 107.75 91.2972 105.942C91.8197 105.894 92.3018 106.283 92.3498 106.808C92.3977 107.333 92.0065 107.798 91.4714 107.845C89.7499 107.998 88.1117 108.069 86.5669 108.069H86.5644Z" fill="black"/>
<path d="M77.9164 141.616C51.2131 141.616 38.3802 123.018 38.2287 122.795C37.9334 122.355 38.0571 121.763 38.5013 121.472C38.9456 121.18 39.5463 121.298 39.8442 121.74C40.0158 121.996 57.4453 147.155 94.1823 137.493C94.7023 137.36 95.2298 137.661 95.3686 138.171C95.5049 138.681 95.1995 139.206 94.6821 139.341C88.5862 140.946 82.9976 141.618 77.9164 141.618V141.616Z" fill="black"/>
<path d="M28.9321 104.584C28.5384 104.584 28.1673 104.345 28.0234 103.958C27.9881 103.863 24.3533 94.3745 16.7025 92.7074C14.7159 92.2755 12.9945 92.5241 11.5885 93.4506C8.71344 95.3437 7.94357 99.459 7.93599 99.4992C7.8426 100.019 7.34029 100.365 6.81273 100.272C6.28518 100.182 5.93432 99.6875 6.02519 99.1677C6.06053 98.9669 6.93642 94.2214 10.5006 91.8662C12.3634 90.6334 14.5897 90.2894 17.119 90.8393C25.8097 92.735 29.6793 102.866 29.8383 103.296C30.0226 103.79 29.7651 104.34 29.2628 104.521C29.1518 104.561 29.0407 104.581 28.9271 104.581L28.9321 104.584Z" fill="black"/>
<path d="M16.2153 110.082C16.0461 110.082 15.877 110.04 15.7205 109.947C15.2611 109.678 15.1097 109.091 15.3823 108.639C15.5741 108.32 20.1479 100.807 26.158 98.2538C26.6477 98.0454 27.2182 98.2689 27.4327 98.7534C27.6448 99.238 27.4176 99.8005 26.9254 100.009C21.4984 102.314 17.0937 109.542 17.0482 109.615C16.8665 109.917 16.5459 110.082 16.2153 110.082Z" fill="black"/>
<path d="M126.658 109.738C126.509 109.738 126.355 109.703 126.214 109.63C125.74 109.387 125.555 108.809 125.803 108.342C131.177 98.1583 128.859 76.4673 128.834 76.2488C128.776 75.7241 129.16 75.252 129.692 75.1968C130.212 75.1415 130.702 75.5182 130.76 76.0429C130.861 76.9544 133.166 98.5274 127.522 109.226C127.35 109.552 127.012 109.741 126.661 109.741L126.658 109.738Z" fill="black"/>
<path d="M69.4555 181.734C50.4812 181.734 36.0555 170.538 35.4118 170.029C34.9953 169.7 34.9272 169.1 35.2604 168.685C35.5961 168.274 36.2044 168.206 36.6234 168.535C36.785 168.663 53.1038 181.327 73.2165 179.668C92.9935 178.028 97.1331 170.639 97.171 170.566C97.4184 170.101 98.0015 169.916 98.4735 170.154C98.9455 170.393 99.1373 170.96 98.9001 171.427C98.7259 171.769 94.407 179.831 73.3781 181.573C72.0529 181.684 70.7428 181.734 69.458 181.734H69.4555Z" fill="black"/>
<path d="M68.9481 188.812C49.9233 188.812 33.3066 179.135 32.5569 178.691C32.0975 178.42 31.9486 177.832 32.2237 177.38C32.4989 176.928 33.0946 176.78 33.554 177.051C33.7458 177.164 53.0407 188.41 73.2165 186.725C93.2358 185.066 100.624 177.307 100.697 177.23C101.056 176.84 101.669 176.81 102.065 177.164C102.462 177.518 102.492 178.121 102.136 178.51C101.823 178.852 94.2505 186.901 73.3805 188.631C71.8963 188.754 70.4171 188.812 68.9531 188.812H68.9481Z" fill="black"/>
<path d="M117.165 77.4868C109.168 77.4868 103.863 71.6591 100.119 58.9116C98.4911 53.3652 98.5491 49.4106 100.288 47.1609C101.465 45.6419 103.03 45.4285 103.504 45.4008C104.837 45.1171 118.773 42.2271 124.624 44.0048C130.995 45.9407 132.209 55.2307 132.257 55.6249C132.26 55.6475 132.262 55.6701 132.262 55.6902C132.994 69.786 129.079 76.2715 119.167 77.3738C118.483 77.4491 117.816 77.4893 117.168 77.4893L117.165 77.4868ZM103.613 47.3066C103.585 47.3066 102.568 47.3342 101.8 48.3586C100.894 49.5663 100.19 52.2855 101.979 58.3793C105.766 71.2624 110.837 76.3745 118.947 75.4731C127.812 74.4863 131.005 68.975 130.329 55.8233C130.253 55.2759 129.069 47.3518 124.053 45.8277C118.515 44.1429 103.984 47.2513 103.835 47.284C103.762 47.299 103.688 47.3041 103.613 47.3066Z" fill="black"/>
<path d="M58.031 84.2835C49.2468 84.2835 43.4462 79.2292 39.193 68.2268C39.1829 68.2016 39.1753 68.174 39.1677 68.1489C39.0567 67.7597 36.4972 58.5726 43.3629 54.4523C49.6481 50.6811 67.8803 48.2907 69.3772 48.0999C69.8896 47.9643 72.2345 47.4697 74.524 48.9988C77.086 50.7087 78.5753 54.2339 78.9514 59.4765C79.9838 73.8083 75.3797 81.2529 64.0259 83.6131C61.8854 84.0575 59.8888 84.286 58.0284 84.286L58.031 84.2835ZM41.0205 67.5915C45.8846 80.1432 52.2253 84.1103 63.6271 81.7426C73.9762 79.5908 77.9796 72.9722 77.0204 59.6121C76.6948 55.0725 75.4655 51.9566 73.4663 50.6007C71.7196 49.4156 69.935 49.9278 69.8593 49.9504C69.8088 49.9655 69.7482 49.9805 69.6952 49.9856C69.5034 50.0082 50.4382 52.4437 44.3701 56.0844C38.9582 59.3309 40.8665 67.004 41.023 67.5915H41.0205Z" fill="black"/>
<path d="M77.7954 60.5789C77.6641 60.5789 77.5303 60.5513 77.4041 60.496C76.917 60.2826 76.6948 59.7202 76.9119 59.2381C77.0205 58.9921 79.6936 53.177 85.792 51.2587C89.9594 49.948 94.6519 50.7917 99.728 53.772C100.187 54.0432 100.339 54.6282 100.064 55.0827C99.7911 55.5346 99.1979 55.6853 98.736 55.4141C94.1672 52.7326 90.0175 51.9442 86.3978 53.074C81.1324 54.7186 78.7066 59.9587 78.6814 60.0115C78.5198 60.3655 78.1664 60.5789 77.7954 60.5789Z" fill="black"/>
<path d="M15.8771 81.1351C15.4732 81.1351 15.0946 80.884 14.9583 80.4848C14.928 80.3944 11.8434 71.3027 10.6293 59.9387C9.50099 49.3756 9.79884 34.6144 17.6238 24.2799C30.7092 7.00282 72.0502 -8.40365 98.2916 5.22264C122.466 17.7768 126.09 40.5199 126.123 40.7484C126.199 41.2706 125.836 41.7552 125.305 41.8306C124.785 41.9084 124.286 41.5468 124.207 41.0246C124.175 40.8061 120.661 18.9971 97.3905 6.91243C72.3986 -6.06355 31.575 9.05166 19.1812 25.4223C4.87164 44.3188 16.6772 79.5207 16.7959 79.8747C16.9675 80.3743 16.6949 80.9167 16.1875 81.0849C16.0841 81.1201 15.9806 81.1351 15.8771 81.1351Z" fill="black"/>
<path d="M33.0567 92.5017C32.678 92.5017 32.3221 92.2807 32.1656 91.9192C30.4088 87.8466 24.1917 84.58 24.1286 84.5474C23.6541 84.3013 23.4723 83.7238 23.7222 83.2568C23.9721 82.7898 24.5577 82.614 25.0298 82.8551C25.2191 82.953 28.2986 84.57 30.9035 87.0582C29.3234 80.7259 26.6452 69.2865 25.58 60.5689C23.5203 43.6986 32.7639 33.226 41.3057 29.3819C45.1071 27.672 58.6948 22.0578 73.9711 21.6611C91.3527 21.2116 104.9 27.3858 114.262 40.0203C114.578 40.4471 114.484 41.0447 114.053 41.356C113.618 41.6674 113.013 41.5745 112.7 41.1476C103.736 29.0504 90.7645 23.1374 74.0242 23.5718C59.1138 23.9585 45.829 29.4472 42.1134 31.1194C34.1648 34.6973 25.5725 44.4946 27.506 60.3404C29.0356 72.8619 33.9452 91.1157 33.9931 91.299C34.1244 91.7836 33.8543 92.2858 33.3722 92.449C33.2687 92.4841 33.1627 92.5017 33.0567 92.5017Z" fill="black"/>
</g>
<defs>
<clipPath id="clip0_27_895">
<rect width="143.26" height="222.849" fill="white"/>
</clipPath>
</defs>
</svg>
