<svg width="144" height="225" viewBox="0 0 144 225" fill="none" xmlns="http://www.w3.org/2000/svg">
<g clip-path="url(#clip0_13_737)">
<path d="M24.5779 84.1687C24.5779 84.1687 11.6869 36.8604 30.1513 26.1551C48.6157 15.4498 86.592 5.09024 106.798 26.1551C127.004 47.22 129.097 74.5006 129.097 74.5006C129.097 74.5006 144.252 73.4634 143.207 90.3844C142.162 107.305 131.709 109.723 125.091 110.412C125.091 110.412 118.124 133.549 95.8255 138.384L96.8705 170.5C96.8705 170.5 110.807 179.651 128.923 198.818C147.039 217.982 135.889 224.027 135.889 224.027H7.68104C7.68104 224.027 -0.681584 220.054 7.68104 206.071C16.0437 192.085 37.2948 169.811 37.2948 169.811L34.5081 122.846C34.5081 122.846 -0.855752 132.514 0.0150911 97.2916C0.0150911 97.2916 0.189259 77.4356 24.5779 84.1687Z" fill="white"/>
<path d="M61.523 71.7128C63.1718 71.4555 64.1417 68.8981 63.6894 66.0007C63.2372 63.1033 61.534 60.963 59.8852 61.2202C58.2365 61.4775 57.2665 64.0349 57.7188 66.9323C58.1711 69.8297 59.8743 71.97 61.523 71.7128Z" fill="black"/>
<path d="M110.303 66.4469C111.952 66.1896 112.921 63.6323 112.469 60.7348C112.017 57.8374 110.314 55.6971 108.665 55.9544C107.016 56.2116 106.046 58.769 106.499 61.6664C106.951 64.5638 108.654 66.7041 110.303 66.4469Z" fill="black"/>
<path d="M91.2088 56.7138C91.2088 56.7138 87.1146 56.5422 86.5062 69.8367C85.8954 83.1313 94.6947 81.7509 94.6947 81.7509C94.6947 81.7509 101.924 81.8367 99.0489 68.1106C96.1738 54.3845 91.2088 56.7138 91.2088 56.7138Z" fill="black"/>
<path d="M86.5642 108.661C88.1141 108.661 89.7447 108.59 91.4712 108.433C92.0038 108.385 92.3976 107.919 92.3496 107.391C92.3017 106.861 91.8398 106.467 91.2971 106.52C71.038 108.345 63.8718 97.9073 63.8011 97.8013C63.5083 97.3621 62.9076 97.236 62.4608 97.5237C62.014 97.8114 61.8853 98.4044 62.1756 98.8486C62.4583 99.2801 68.8192 108.661 86.5642 108.661Z" fill="black"/>
<path d="M77.9139 142.379C82.9976 142.379 88.5836 141.7 94.682 140.09C95.1995 139.954 95.5074 139.426 95.3686 138.914C95.2323 138.402 94.7022 138.094 94.1822 138.233C74.9808 143.31 61.2416 138.745 53.0986 134.021C44.2539 128.89 39.8896 122.465 39.8467 122.402C39.5513 121.96 38.9481 121.842 38.5038 122.132C38.057 122.424 37.9359 123.02 38.2312 123.462C38.3801 123.686 51.2181 142.379 77.9164 142.379H77.9139Z" fill="black"/>
<path d="M28.9321 105.158C29.0432 105.158 29.1568 105.14 29.2653 105.1C29.7676 104.918 30.0251 104.365 29.8408 103.866C29.6793 103.434 25.8122 93.2485 17.1215 91.3457C14.5922 90.793 12.3659 91.1413 10.503 92.3779C6.9389 94.7451 6.06553 99.5148 6.03019 99.7166C5.93932 100.239 6.29018 100.734 6.81774 100.827C7.34024 100.92 7.84508 100.57 7.941 100.047C7.94857 100.007 8.71845 95.8681 11.5935 93.9678C12.9995 93.0391 14.721 92.7842 16.7075 93.2233C24.376 94.904 27.9906 104.436 28.0259 104.532C28.1698 104.92 28.5409 105.16 28.9346 105.16L28.9321 105.158Z" fill="black"/>
<path d="M16.2154 110.682C16.546 110.682 16.8666 110.515 17.0484 110.213C17.0913 110.139 21.496 102.876 26.923 100.557C27.4152 100.348 27.6398 99.7824 27.4303 99.2953C27.2183 98.8082 26.6504 98.5811 26.1556 98.7931C20.1455 101.36 15.5742 108.91 15.3824 109.231C15.1098 109.688 15.2612 110.276 15.7206 110.546C15.8746 110.637 16.0463 110.682 16.2154 110.682Z" fill="black"/>
<path d="M126.658 110.339C127.007 110.339 127.345 110.152 127.519 109.821C133.163 99.0682 130.859 77.3875 130.758 76.4689C130.7 75.939 130.217 75.5402 129.69 75.6185C129.157 75.674 128.774 76.1484 128.832 76.6759C128.854 76.8954 131.174 98.6972 125.8 108.936C125.553 109.405 125.737 109.985 126.212 110.23C126.355 110.303 126.507 110.339 126.658 110.339Z" fill="black"/>
<path d="M39.039 110.682C39.5262 110.682 39.9452 110.319 40.0007 109.827C42.6183 86.2709 38.8926 55.2149 36.9389 41.5645C39.4782 47.2427 43.0752 55.5506 45.1475 61.5038C45.246 61.784 45.4681 62.006 45.7533 62.0994C46.0361 62.1978 46.3491 62.1549 46.599 61.9909C46.8766 61.8092 74.6931 43.808 99.5437 48.5071C111.241 50.7228 120.106 54.9903 120.194 55.0332C120.676 55.2679 121.254 55.0711 121.491 54.5941C121.726 54.1171 121.529 53.5417 121.05 53.3096C120.959 53.2641 111.859 48.8806 99.9097 46.6194C86.4886 44.0806 72.4087 47.962 62.9632 51.6692C55.0222 54.7859 48.9237 58.3064 46.5788 59.7348C42.9616 49.7285 35.8737 34.5387 35.798 34.3797C35.5935 33.9431 35.0937 33.7236 34.6293 33.8674C34.1648 34.0087 33.8796 34.4706 33.9629 34.9475C34.0386 35.3841 41.4824 78.9649 38.0773 109.615C38.0193 110.142 38.4029 110.616 38.9355 110.675C38.9709 110.68 39.0062 110.68 39.0415 110.68L39.039 110.682Z" fill="black"/>
<path d="M4.02107 77.5313C4.05389 77.5313 4.0867 77.5314 4.11952 77.5263C4.65212 77.4733 5.04084 77.0039 4.98783 76.4765C2.94577 56.2495 7.6458 43.5883 11.9495 36.5272C16.5991 28.9007 21.7964 25.9884 21.8494 25.9607C21.9731 25.8925 22.0816 25.7966 22.1649 25.6831C22.2482 25.5695 30.6663 14.2636 45.5186 7.31848C65.3764 -1.96853 86.7234 0.529878 108.959 14.7456C134.612 31.1442 139.123 71.7724 139.166 72.1812C139.221 72.7087 139.698 73.0948 140.228 73.0367C140.761 72.9812 141.147 72.5093 141.092 71.9819C141.049 71.5629 136.447 30.0338 110.009 13.1304C94.2909 3.08128 70.1824 -6.37986 44.615 5.61755C30.164 12.3961 21.8696 22.8717 20.7211 24.3859C18.4291 25.7285 -0.825358 38.2155 3.05936 76.6657C3.10984 77.1629 3.53138 77.5313 4.02107 77.5313Z" fill="black"/>
<path d="M22.1321 201.791C22.3164 201.791 22.4981 201.738 22.6571 201.639C22.7127 201.604 28.382 198.033 37.4917 196.022C38.0143 195.906 38.3424 195.393 38.2263 194.876C38.1102 194.359 37.5927 194.036 37.0702 194.147C29.8864 195.734 24.8431 198.207 22.7202 199.376C13.4666 166.959 8.89275 127.861 8.84732 127.464C8.78674 126.937 8.30967 126.558 7.77454 126.619C7.24194 126.679 6.86079 127.156 6.92137 127.681C6.9668 128.085 11.6694 168.299 21.2007 201.099C21.284 201.389 21.5036 201.624 21.7913 201.733C21.9024 201.773 22.016 201.793 22.1321 201.793V201.791Z" fill="black"/>
<path d="M126.659 191.835C127.05 191.835 127.418 191.598 127.565 191.214C140.135 158.288 141.089 113.297 141.099 112.847C141.109 112.317 140.683 111.878 140.148 111.868C139.597 111.921 139.171 112.282 139.161 112.812C139.153 113.259 138.204 157.925 125.752 190.533C125.563 191.03 125.815 191.583 126.315 191.772C126.429 191.815 126.545 191.835 126.659 191.835Z" fill="black"/>
<path d="M71.6312 207.719C72.1133 207.719 72.5298 207.363 72.5904 206.878C72.656 206.351 72.2824 205.872 71.7498 205.806C44.895 202.452 32.057 179.706 31.9308 179.477C31.6759 179.01 31.0852 178.838 30.6157 179.093C30.1462 179.348 29.9746 179.931 30.2295 180.395C30.3608 180.635 43.6809 204.234 71.5075 207.709C71.5479 207.714 71.5883 207.716 71.6287 207.716L71.6312 207.719Z" fill="black"/>
<path d="M71.6287 224.986C72.1638 224.986 72.598 224.557 72.598 224.024V207.704C95.1314 207.01 108.126 182.306 108.255 182.051C108.497 181.579 108.308 181.001 107.833 180.759C107.359 180.519 106.773 180.703 106.528 181.178C106.402 181.425 93.5613 205.798 71.6287 205.798C71.0936 205.798 70.6594 206.227 70.6594 206.76V224.027C70.6594 224.557 71.0936 224.988 71.6287 224.988V224.986Z" fill="black"/>
<path d="M57.9553 213.069C57.9553 210.318 60.2119 208.08 62.9885 208.08C65.7651 208.08 68.0218 210.318 68.0218 213.069C68.0218 215.82 65.7626 218.058 62.9885 218.058C60.2145 218.058 57.9553 215.82 57.9553 213.069ZM59.8939 213.069C59.8939 214.76 61.2822 216.138 62.9885 216.138C64.6949 216.138 66.0857 214.76 66.0857 213.069C66.0857 211.378 64.6974 210 62.9885 210C61.2797 210 59.8939 211.378 59.8939 213.069Z" fill="black"/>
</g>
<defs>
<clipPath id="clip0_13_737">
<rect width="143.26" height="224.986" fill="white"/>
</clipPath>
</defs>
</svg>
