<svg width="144" height="220" viewBox="0 0 144 220" fill="none" xmlns="http://www.w3.org/2000/svg">
<g clip-path="url(#clip0_13_539)">
<path d="M24.5776 80.1166C24.5776 80.1166 11.6868 32.7988 30.1509 22.0914C48.6151 11.3839 86.591 1.0223 106.797 22.0914C127.003 43.1605 129.095 70.4466 129.095 70.4466C129.095 70.4466 144.25 69.4091 143.205 86.3336C142.16 103.258 131.708 105.676 125.089 106.365C125.089 106.365 118.123 129.507 95.8243 134.343L96.8693 166.465C96.8693 166.465 110.805 175.618 128.921 194.789C147.037 213.957 135.888 220.003 135.888 220.003H7.68094C7.68094 220.003 -0.681575 216.03 7.68094 202.043C16.0435 188.054 37.2943 165.776 37.2943 165.776L34.5076 118.802C34.5076 118.802 -0.855742 128.472 0.0150909 93.2422C0.0150909 93.2422 0.189257 73.3822 24.5776 80.1166Z" fill="white"/>
<path d="M61.5234 67.6567C63.1722 67.3994 64.1421 64.8415 63.6898 61.9435C63.2376 59.0455 61.5344 56.9048 59.8857 57.162C58.2369 57.4193 57.267 59.9772 57.7193 62.8752C58.1715 65.7732 59.8747 67.9139 61.5234 67.6567Z" fill="black"/>
<path d="M110.3 62.3944C111.949 62.1371 112.919 59.5793 112.467 56.6813C112.015 53.7833 110.311 51.6425 108.663 51.8998C107.014 52.1571 106.044 54.715 106.496 57.613C106.949 60.511 108.652 62.6517 110.3 62.3944Z" fill="black"/>
<path d="M91.2077 52.6589C91.2077 52.6589 87.1136 52.4872 86.5053 65.7845C85.8969 79.0817 94.6936 77.701 94.6936 77.701C94.6936 77.701 101.923 77.7868 99.0478 64.0579C96.1728 50.3291 91.2077 52.6589 91.2077 52.6589Z" fill="black"/>
<path d="M86.5633 104.613C68.811 104.613 62.4577 95.2337 62.175 94.802C61.8847 94.3578 62.0134 93.7621 62.4602 93.4718C62.907 93.1866 63.5077 93.3103 63.8005 93.7545C63.904 93.911 71.0776 104.285 91.2961 102.475C91.8287 102.44 92.3007 102.816 92.3487 103.346C92.3966 103.874 92.0029 104.341 91.4703 104.389C89.7463 104.543 88.1106 104.613 86.5658 104.613H86.5633Z" fill="black"/>
<path d="M77.9155 138.339C51.2125 138.339 38.3797 119.642 38.2282 119.418C37.9329 118.976 38.0566 118.38 38.5008 118.087C38.9451 117.795 39.5484 117.913 39.8437 118.357C40.0153 118.615 57.4446 143.907 94.1811 134.194C94.6985 134.058 95.2286 134.361 95.3675 134.876C95.5063 135.388 95.1983 135.915 94.6809 136.052C88.5851 137.665 82.9966 138.341 77.9155 138.341V138.339Z" fill="black"/>
<path d="M28.9318 101.11C28.5381 101.11 28.167 100.87 28.0231 100.482C27.9878 100.386 24.353 90.8469 16.7023 89.1709C14.7107 88.7342 12.9868 88.9866 11.5808 89.9231C8.69822 91.8389 7.9435 95.9558 7.93592 95.9962C7.84505 96.5187 7.3478 96.8746 6.8152 96.7761C6.28765 96.6853 5.93427 96.188 6.02766 95.6655C6.063 95.4636 6.93888 90.6929 10.5005 88.3253C12.3658 87.0859 14.5946 86.7426 17.1188 87.2929C25.8094 89.1986 29.679 99.3836 29.838 99.8152C30.0223 100.312 29.7648 100.865 29.2625 101.047C29.1514 101.087 29.0404 101.108 28.9268 101.108L28.9318 101.11Z" fill="black"/>
<path d="M16.2151 106.638C16.046 106.638 15.8769 106.595 15.7204 106.502C15.261 106.232 15.1095 105.641 15.3822 105.187C15.574 104.866 20.1478 97.3137 26.1552 94.7466C26.6449 94.5371 27.2154 94.7618 27.4299 95.2489C27.642 95.7361 27.4148 96.3015 26.9226 96.511C21.4957 98.8282 17.091 106.095 17.0481 106.168C16.8664 106.471 16.5433 106.638 16.2151 106.638Z" fill="black"/>
<path d="M126.657 106.292C126.505 106.292 126.354 106.257 126.21 106.184C125.736 105.939 125.551 105.358 125.799 104.889C131.173 94.6508 128.855 72.8446 128.83 72.625C128.772 72.0975 129.156 71.6229 129.688 71.5674C130.211 71.5119 130.698 71.8905 130.756 72.4181C130.857 73.3343 133.162 95.0218 127.518 105.777C127.346 106.105 127.008 106.295 126.657 106.295V106.292Z" fill="black"/>
<path d="M36.368 98.7245C35.9767 98.7245 35.6234 98.4898 35.4719 98.1313C32.1148 90.0944 25.8549 78.9377 22.5533 79.3744C22.0283 79.4425 21.5386 79.0689 21.4704 78.5414C21.4048 78.0139 21.7809 77.5343 22.311 77.4686C26.6778 76.9335 31.7715 85.7706 34.8232 92.0229C34.543 90.8769 34.2098 89.6224 33.859 88.3124C32.14 81.8632 29.785 73.0337 29.8102 63.2223C29.838 52.2599 34.0761 47.5701 34.2578 47.3782C34.6188 46.8532 45.0284 32.6877 74.9471 38.1323C73.1398 36.0827 69.3915 32.8896 62.7807 31.4685C60.7185 31.0243 59.9335 30.7769 59.8704 29.9288C59.8401 29.5047 60.1606 29.0453 60.562 28.8964C62.5485 28.1568 82.0955 30.8703 90.0491 36.9333C89.466 33.5686 88.2166 28.8939 86.0307 27.2557C85.9575 27.2027 85.9146 27.1724 85.907 27.1673C85.4728 26.8594 85.3719 26.2637 85.6798 25.8321C85.9878 25.4004 86.586 25.2944 87.0252 25.5973C87.0656 25.6251 87.106 25.6554 87.1464 25.6831C88.2141 26.448 95.7083 31.9153 99.333 37.0368C99.8277 34.9745 100.512 32.0188 100.789 30.3705C100.837 30.0777 101.022 29.8253 101.284 29.6839C101.547 29.5426 101.86 29.53 102.135 29.6486C102.804 29.9389 118.585 36.9863 125.094 56.8413C125.259 57.3461 124.981 57.8888 124.474 58.0529C123.961 58.2144 123.418 57.9393 123.252 57.437C117.997 41.4061 106.138 33.9497 102.463 31.9683C101.855 34.9897 100.714 39.5635 100.658 39.7856C100.56 40.1793 100.221 40.4696 99.8125 40.51C99.4036 40.5529 99.0149 40.3308 98.8407 39.9648C97.3919 36.9282 93.5425 33.3036 90.4176 30.6885C91.9044 34.6414 92.3183 39.1848 92.3436 39.4726C92.3814 39.8992 92.129 40.298 91.7252 40.452C91.3264 40.6034 90.867 40.4772 90.6044 40.1339C87.3003 35.81 76.8503 32.9855 69.3082 31.63C75.6312 34.606 77.9206 38.887 78.0392 39.1142C78.2109 39.4448 78.1755 39.8411 77.9483 40.1364C77.7212 40.4318 77.3451 40.5681 76.9765 40.4923C61.034 37.1352 50.6673 39.5231 44.781 42.1179C38.4328 44.9147 35.7849 48.5469 35.7597 48.5823C35.6436 48.7186 31.7715 53.0853 31.7463 63.2299C31.721 72.7863 34.0382 81.477 35.7294 87.8227C37.0748 92.871 37.9633 96.2079 37.2716 98.0935C37.1353 98.4645 36.782 98.7169 36.3831 98.7245H36.3629H36.368Z" fill="black"/>
<path d="M9.30904 78.92C8.85469 78.92 8.4483 78.5995 8.35996 78.1401C8.34229 78.0441 6.48199 68.3262 6.19423 56.7857C5.80299 41.1713 8.31452 29.8127 13.6582 23.0252C20.2916 14.5996 32.3924 7.22907 46.0254 3.31159C57.1518 0.113489 74.5331 -2.39047 94.1483 3.82147C127.821 14.4835 132.864 67.6699 132.909 68.205C132.955 68.7325 132.561 69.1995 132.028 69.2449C131.503 69.2853 131.026 68.8991 130.978 68.3716C130.933 67.8491 125.998 15.9248 93.5577 5.65148C69.0128 -2.12039 32.0693 2.76385 15.1827 24.209C3.05671 39.6114 10.1874 77.398 10.2606 77.7791C10.3616 78.2991 10.0158 78.8039 9.49078 78.9024C9.4302 78.915 9.36709 78.92 9.30651 78.92H9.30904Z" fill="black"/>
<path d="M31.6075 132.803C31.4484 132.803 31.2869 132.765 31.138 132.682C26.7914 130.287 21.8239 122.553 21.6143 122.225C21.3291 121.775 21.4629 121.182 21.9147 120.899C22.3665 120.617 22.9648 120.748 23.2525 121.197C23.3005 121.273 28.162 128.845 32.0795 131.004C32.5464 131.261 32.7156 131.847 32.4556 132.311C32.2789 132.627 31.9482 132.806 31.6075 132.806V132.803Z" fill="#0060FF"/>
<path d="M57.4977 192.878C53.2142 192.878 44.3469 185.434 34.1342 176.476C32.2663 174.838 30.6534 173.424 29.4695 172.445C25.5167 169.179 29.679 155.402 34.3891 148.481C36.2721 145.712 40.0154 144.889 42.9056 146.61C53.6837 153.024 72.0772 164.542 74.1697 169.618C77.1079 176.746 64.7799 189.221 58.7876 192.578C58.4216 192.782 57.9899 192.881 57.4977 192.881V192.878ZM35.9945 149.554C31.1683 156.649 28.1544 168.858 30.7089 170.968C31.918 171.965 33.5385 173.389 35.419 175.037C41.3356 180.227 55.1932 192.381 57.8334 190.904C63.2553 187.865 74.7301 176.062 72.3751 170.345C71.0221 167.061 59.6331 158.805 41.9086 148.259C39.8993 147.065 37.302 147.635 35.9945 149.556V149.554Z" fill="black"/>
<path d="M91.4224 182.857C91.1649 182.857 90.9251 182.829 90.703 182.774C86.3942 181.696 78.2841 177.304 75.8837 173.147C75.1441 171.867 74.9371 170.648 75.2678 169.525C76.2522 166.178 84.4557 159.981 93.5023 153.388L95.0142 152.285C97.1926 150.689 100.295 150.692 102.231 152.29C106.035 155.432 111.017 163.209 111.194 167.473C111.239 168.573 110.967 169.421 110.379 169.992C110.24 170.125 97.026 182.857 91.4224 182.857ZM98.7121 153.022C97.8211 153.022 96.8972 153.292 96.1627 153.827L94.6457 154.933C88.8301 159.171 78.0065 167.059 77.1256 170.06C76.9489 170.663 77.0953 171.38 77.5648 172.19C79.6447 175.792 87.1389 179.899 91.1775 180.911C93.7673 181.565 103.311 174.189 109.021 168.621C109.195 168.449 109.281 168.071 109.258 167.551C109.119 164.184 104.715 156.841 100.991 153.764C100.391 153.269 99.5678 153.022 98.7146 153.022H98.7121Z" fill="black"/>
<path d="M79.1221 217.042C78.5971 217.042 78.1655 216.623 78.1528 216.1C77.8096 198.739 75.1466 177.221 75.1213 177.004C75.0557 176.479 75.4318 175.999 75.9644 175.934C76.497 175.865 76.9791 176.241 77.0447 176.769C77.0725 176.984 79.7456 198.6 80.0914 216.062C80.1015 216.593 79.6774 217.032 79.1423 217.042H79.1221Z" fill="black"/>
<path d="M69.1113 201.475C66.3347 201.475 64.0781 199.236 64.0781 196.485C64.0781 193.734 66.3347 191.495 69.1113 191.495C71.8878 191.495 74.1444 193.734 74.1444 196.485C74.1444 199.236 71.8878 201.475 69.1113 201.475ZM69.1113 193.416C67.405 193.416 66.0167 194.791 66.0167 196.485C66.0167 198.179 67.405 199.554 69.1113 199.554C70.8176 199.554 72.2059 198.179 72.2059 196.485C72.2059 194.791 70.8176 193.416 69.1113 193.416Z" fill="black"/>
<path d="M69.1113 217.042C66.3347 217.042 64.0781 214.803 64.0781 212.052C64.0781 209.3 66.3347 207.061 69.1113 207.061C71.8878 207.061 74.1444 209.3 74.1444 212.052C74.1444 214.803 71.8878 217.042 69.1113 217.042ZM69.1113 208.982C67.405 208.982 66.0167 210.358 66.0167 212.052C66.0167 213.745 67.405 215.121 69.1113 215.121C70.8176 215.121 72.2059 213.745 72.2059 212.052C72.2059 210.358 70.8176 208.982 69.1113 208.982Z" fill="black"/>
</g>
<defs>
<clipPath id="clip0_13_539">
<rect width="143.258" height="220" fill="white"/>
</clipPath>
</defs>
</svg>
