<svg width="157" height="242" viewBox="0 0 157 242" fill="none" xmlns="http://www.w3.org/2000/svg">
<g clip-path="url(#clip0_27_775)">
<path d="M37.638 100.733C37.638 100.733 24.6732 52.9477 43.2434 42.1343C61.8135 31.321 100.007 20.8569 120.329 42.1343C140.651 63.4118 142.756 90.9677 142.756 90.9677C142.756 90.9677 157.998 89.92 156.947 107.012C155.896 124.104 145.383 126.546 138.727 127.242C138.727 127.242 131.72 150.612 109.294 155.496L110.345 187.936C110.345 187.936 124.361 197.179 142.581 216.54C160.8 235.897 149.587 242.003 149.587 242.003H20.6418C20.6418 242.003 12.2313 237.99 20.6418 223.866C29.0523 209.739 50.4252 187.24 50.4252 187.24L47.6225 139.801C47.6225 139.801 12.0561 149.567 12.9345 113.989C12.9345 113.989 13.1096 93.9323 37.638 100.733Z" fill="white"/>
<path d="M74.7941 88.1535C76.4523 87.8937 77.4278 85.3105 76.973 82.3839C76.5181 79.4572 74.8051 77.2953 73.1469 77.5551C71.4888 77.815 70.5133 80.3982 70.9681 83.3248C71.423 86.2515 73.1359 88.4134 74.7941 88.1535Z" fill="black"/>
<path d="M123.848 82.8347C125.507 82.5748 126.482 79.9917 126.027 77.065C125.572 74.1383 123.859 71.9765 122.201 72.2363C120.543 72.4961 119.567 75.0793 120.022 78.006C120.477 80.9326 122.19 83.0945 123.848 82.8347Z" fill="black"/>
<path d="M104.651 73.0017C104.651 73.0017 100.533 72.8283 99.9212 86.257C99.3068 99.6858 108.157 98.2914 108.157 98.2914C108.157 98.2914 115.427 98.3781 112.536 84.5135C109.644 70.6488 104.651 73.0017 104.651 73.0017Z" fill="black"/>
<path d="M99.9795 125.472C101.538 125.472 103.178 125.401 104.915 125.243C105.45 125.195 105.846 124.723 105.798 124.19C105.75 123.655 105.28 123.257 104.739 123.311C84.3643 125.154 77.1571 114.611 77.086 114.504C76.7915 114.06 76.1873 113.933 75.738 114.223C75.2886 114.514 75.1592 115.113 75.4511 115.562C75.7354 115.997 82.1328 125.472 99.9795 125.472Z" fill="black"/>
<path d="M91.2795 159.531C96.3924 159.531 102.01 158.846 108.144 157.219C108.664 157.082 108.974 156.549 108.834 156.031C108.697 155.514 108.164 155.203 107.641 155.343C88.3296 160.472 74.5093 155.861 66.3221 151.089C57.4267 145.906 53.0349 139.416 52.9917 139.353C52.6947 138.906 52.0905 138.784 51.6411 139.08C51.1943 139.375 51.0699 139.977 51.367 140.423C51.5167 140.65 64.4283 159.531 91.2821 159.531H91.2795Z" fill="black"/>
<path d="M42.0171 121.934C42.1288 121.934 42.2431 121.917 42.3522 121.873C42.8574 121.69 43.1164 121.131 42.931 120.629C42.7711 120.193 38.8794 109.905 30.1388 107.983C27.6001 107.425 25.3585 107.771 23.4825 109.026C19.8979 111.417 19.0195 116.235 18.9814 116.438C18.8901 116.966 19.2429 117.466 19.7735 117.56C20.3041 117.654 20.8067 117.3 20.9007 116.772C20.9083 116.732 21.6851 112.551 24.5766 110.632C25.9906 109.694 27.7195 109.436 29.7174 109.88C37.4095 111.572 41.0677 121.205 41.1032 121.302C41.2479 121.695 41.6211 121.937 42.0171 121.937V121.934Z" fill="black"/>
<path d="M29.2275 127.514C29.5601 127.514 29.885 127.346 30.0653 127.04C30.1084 126.966 34.5384 119.63 39.9965 117.287C40.489 117.076 40.7174 116.505 40.5042 116.013C40.2909 115.521 39.7172 115.294 39.2247 115.505C33.1802 118.098 28.5802 125.725 28.3898 126.049C28.1156 126.51 28.2679 127.104 28.7299 127.377C28.8848 127.468 29.0574 127.514 29.225 127.514H29.2275Z" fill="black"/>
<path d="M140.303 127.168C140.654 127.168 140.994 126.979 141.169 126.645C146.845 115.783 144.528 93.884 144.426 92.9561C144.368 92.4208 143.885 92.0181 143.352 92.0971C142.817 92.1532 142.431 92.6324 142.489 93.1652C142.512 93.3869 144.845 115.409 139.44 125.75C139.191 126.225 139.377 126.811 139.854 127.058C139.999 127.132 140.151 127.168 140.303 127.168Z" fill="black"/>
<path d="M18.89 103.331C18.9712 103.331 19.0525 103.321 19.1337 103.3C19.6541 103.165 19.9689 102.637 19.8344 102.12C19.7836 101.926 14.8942 82.5147 19.8344 62.2875C31.6645 13.8849 77.1748 18.9398 92.1325 20.6018C143.446 26.3042 143.027 84.9924 143.017 85.5838C143.009 86.1191 143.436 86.5601 143.974 86.5703C144.459 86.6035 144.957 86.1523 144.967 85.617C144.977 85.0077 145.436 24.5708 92.3508 18.6722C50.5114 14.0226 26.1759 28.1421 17.9456 61.8286C12.8836 82.5453 17.8974 102.405 17.9456 102.602C18.0573 103.04 18.4533 103.331 18.8875 103.331H18.89Z" fill="black"/>
<path d="M39.915 103.331C40.2019 103.331 40.4862 103.203 40.6792 102.964C47.8229 94.0011 50.425 81.4008 48.2088 66.5242C47.2847 60.3248 45.7285 54.9844 44.5024 51.3978C51.1206 57.0338 60.605 57.3754 80.6247 58.0943C85.0191 58.2523 89.939 58.4282 95.4657 58.6806C129.793 60.2534 136.559 81.8622 136.622 82.0814C136.775 82.5964 137.313 82.892 137.831 82.7416C138.346 82.5913 138.643 82.0534 138.493 81.541C138.427 81.3091 131.344 58.3849 95.5545 56.7458C90.0177 56.4909 85.0928 56.315 80.6933 56.157C56.924 55.303 48.9171 55.015 42.5654 46.4423C42.2709 46.0421 41.72 45.9325 41.291 46.1797C40.8619 46.4295 40.6893 46.9598 40.8899 47.4135C41.0397 47.7474 55.6318 81.0822 39.1484 101.763C38.8158 102.184 38.8843 102.793 39.3058 103.127C39.4835 103.27 39.6967 103.336 39.91 103.336L39.915 103.331Z" fill="black"/>
<path d="M45.5433 153.434C46.0815 153.434 46.5181 153 46.5181 152.462C46.5181 151.925 46.0815 151.491 45.5433 151.491C38.3843 151.491 35.2389 142.834 35.2085 142.745C35.0308 142.241 34.4748 141.97 33.9671 142.151C33.4593 142.327 33.1928 142.88 33.3705 143.385C33.5127 143.795 36.9957 153.431 45.5458 153.431L45.5433 153.434Z" fill="black"/>
<path d="M21.1547 45.303C21.604 45.303 22.0102 44.9894 22.1067 44.5331C22.2184 44.008 21.8833 43.4956 21.3552 43.3835C21.2181 43.3529 7.42315 40.3373 3.19123 30.7832C0.837903 25.4658 1.84575 19.0445 6.18175 11.698C12.6883 0.678181 20.9287 0.938191 26.694 3.10494C36.45 6.76801 44.5051 18.0402 43.3958 23.7833C43.2942 24.311 43.6395 24.8183 44.1675 24.9177C44.7006 25.0222 45.2084 24.673 45.3074 24.1479C46.8026 16.3986 36.4754 4.70068 27.3794 1.28742C22.0864 -0.693242 12.0739 -2.1131 4.50117 10.714C-0.175017 18.6341 -1.21332 25.6518 1.41164 31.5734C6.04974 42.0401 20.3449 45.1551 20.9516 45.2826C21.0201 45.2979 21.0861 45.303 21.1547 45.303Z" fill="black"/>
<path d="M129.773 92.3543C131.728 92.3543 133.982 92.0586 136.612 91.4468C137.138 91.3244 137.463 90.8019 137.341 90.2818C137.219 89.7593 136.693 89.4355 136.171 89.5579C122.939 92.6398 120.568 87.2331 116.453 74.7169C114.46 68.6577 118.395 66.8172 118.562 66.7408C119.05 66.5216 119.273 65.9505 119.058 65.4637C118.842 64.9742 118.273 64.7499 117.783 64.9615C117.725 64.9844 112.038 67.531 114.6 75.3185C118.106 85.9891 120.703 92.3517 129.771 92.3517L129.773 92.3543Z" fill="black"/>
<path d="M54.3219 86.3156C54.3143 86.2901 54.3067 86.262 54.2991 86.234C54.2026 85.8338 52.0168 76.4097 59.0895 72.5121C65.5631 68.9459 83.9835 67.2737 85.499 67.1386C86.0195 67.0213 88.3956 66.616 90.6347 68.2628C93.1378 70.1032 94.4858 73.7434 94.6458 79.0735C95.0824 93.6545 90.1448 101.016 78.6345 102.941C76.8346 103.242 75.1439 103.395 73.5522 103.395C64.1643 103.395 58.2746 98.0568 54.3245 86.3105L54.3219 86.3156ZM85.9103 69.0377C85.8545 69.053 85.7961 69.0632 85.7377 69.0683C85.5447 69.0836 66.2815 70.7685 60.0339 74.2124C54.4616 77.2841 56.0533 85.1455 56.1878 85.7471C60.5492 98.6813 66.7537 102.966 78.3096 101.034C88.7993 99.2778 93.1023 92.7291 92.6961 79.1373C92.559 74.5183 91.4547 71.3064 89.5025 69.8483C88.5099 69.1065 87.4843 68.9485 86.7836 68.9485C86.2784 68.9485 85.9433 69.0326 85.9128 69.0402L85.9103 69.0377ZM55.2333 86.0097H55.246H55.2333Z" fill="black"/>
<path d="M93.379 76.6925C93.6329 76.6925 93.8893 76.5931 94.0797 76.3969C97.7963 72.5655 101.609 70.7251 105.427 70.8602C110.977 71.0896 114.734 75.5837 114.772 75.6296C115.112 76.0451 115.724 76.1063 116.143 75.7698C116.559 75.4307 116.623 74.8215 116.283 74.406C116.11 74.1944 111.962 69.1982 105.529 68.9229C101.135 68.7419 96.8062 70.7965 92.6784 75.0484C92.3052 75.4333 92.3154 76.0476 92.7012 76.4198C92.8891 76.6008 93.1353 76.6925 93.379 76.6925Z" fill="black"/>
<path d="M84.9762 202.858C95.5954 202.858 102.158 198.93 105.796 195.634C109.771 192.032 111.193 188.438 111.251 188.288C111.444 187.788 111.195 187.227 110.695 187.033C110.193 186.835 109.629 187.087 109.434 187.587C109.22 188.132 103.978 200.918 84.9737 200.918H84.9559C60.2803 200.908 51.3417 186.875 51.2554 186.733C50.9761 186.276 50.3795 186.131 49.9175 186.411C49.458 186.692 49.3133 187.286 49.5926 187.742C49.9683 188.359 59.1226 202.848 84.9559 202.858H84.9737H84.9762Z" fill="black"/>
<path d="M83.27 209.84C83.4122 209.84 83.5569 209.84 83.7016 209.835C86.9003 209.749 89.1876 208.818 90.5026 207.062C92.2822 204.691 91.5206 201.76 91.4876 201.637C91.348 201.117 90.8174 200.809 90.2945 200.949C89.774 201.089 89.4669 201.62 89.6039 202.137C89.609 202.152 90.1472 204.304 88.9287 205.912C87.9868 207.159 86.2098 207.824 83.6483 207.893C81.1477 207.967 79.3377 207.378 78.2841 206.16C76.8193 204.469 77.223 202.078 77.2281 202.053C77.322 201.525 76.9666 201.023 76.4385 200.929C75.908 200.84 75.4028 201.186 75.3088 201.716C75.286 201.852 74.7478 205.046 76.8092 207.426C78.1953 209.027 80.3684 209.835 83.27 209.835V209.84Z" fill="black"/>
</g>
<defs>
<clipPath id="clip0_27_775">
<rect width="157" height="242" fill="white"/>
</clipPath>
</defs>
</svg>
