<svg width="144" height="244" viewBox="0 0 144 244" fill="none" xmlns="http://www.w3.org/2000/svg">
<g clip-path="url(#clip0_27_855)">
<path d="M24.5779 103.82C24.5779 103.82 11.6869 56.7282 30.1513 46.0718C48.6157 35.4155 86.592 25.1034 106.798 46.0718C127.004 67.0403 129.097 94.196 129.097 94.196C129.097 94.196 144.252 93.1636 143.207 110.007C142.162 126.851 131.709 129.257 125.091 129.943C125.091 129.943 118.124 152.974 95.8255 157.787L96.8705 189.756C96.8705 189.756 110.807 198.865 128.923 217.944C147.039 237.021 135.889 243.038 135.889 243.038H7.68104C7.68104 243.038 -0.681584 239.084 7.68104 225.164C16.0437 211.242 37.2948 189.07 37.2948 189.07L34.5081 142.32C34.5081 142.32 -0.855752 151.944 0.0150911 116.883C0.0150911 116.883 0.189259 97.1176 24.5779 103.82Z" fill="white"/>
<path d="M61.5225 91.4203C63.1713 91.1642 64.1412 88.6185 63.6889 85.7344C63.2367 82.8502 61.5335 80.7197 59.8847 80.9758C58.236 81.2319 57.266 83.7775 57.7183 86.6617C58.1706 89.5458 59.8738 91.6763 61.5225 91.4203Z" fill="black"/>
<path d="M110.3 86.1808C111.949 85.9247 112.919 83.379 112.467 80.4949C112.014 77.6107 110.311 75.4802 108.662 75.7363C107.014 75.9924 106.044 78.538 106.496 81.4222C106.948 84.3063 108.651 86.4368 110.3 86.1808Z" fill="black"/>
<path d="M91.2088 76.4934C91.2088 76.4934 87.1146 76.3225 86.5062 89.5563C85.8954 102.79 94.6947 101.416 94.6947 101.416C94.6947 101.416 101.924 101.501 99.0489 87.838C96.1738 74.1747 91.2088 76.4934 91.2088 76.4934Z" fill="black"/>
<path d="M86.5641 128.2C68.8141 128.2 62.4582 118.865 62.1755 118.435C61.8852 117.993 62.0114 117.4 62.4607 117.111C62.91 116.825 63.5082 116.951 63.7985 117.39C63.8692 117.496 71.0354 127.881 91.2944 126.07C91.8094 126.022 92.2991 126.411 92.347 126.936C92.395 127.461 92.0037 127.926 91.4686 127.974C89.7471 128.127 88.1089 128.197 86.5641 128.197V128.2Z" fill="black"/>
<path d="M77.9164 161.764C51.2131 161.764 38.3801 143.157 38.2287 142.933C37.9359 142.494 38.0571 141.901 38.5013 141.609C38.9456 141.318 39.5488 141.439 39.8442 141.878C40.0158 142.134 57.4478 167.306 94.1823 157.639C94.7022 157.506 95.2298 157.807 95.3686 158.317C95.5049 158.827 95.1995 159.352 94.682 159.488C88.5861 161.093 82.9976 161.766 77.9164 161.766V161.764Z" fill="black"/>
<path d="M28.932 124.713C28.5383 124.713 28.1672 124.474 28.0233 124.087C27.988 123.992 24.3532 114.499 16.7024 112.831C14.7158 112.399 12.9943 112.65 11.5909 113.574C8.71585 115.468 7.94597 119.586 7.9384 119.626C7.845 120.146 7.34774 120.498 6.81766 120.4C6.29263 120.309 5.93925 119.814 6.03012 119.294C6.06545 119.093 6.94135 114.346 10.503 111.989C12.3683 110.756 14.5921 110.412 17.1214 110.962C25.8147 112.856 29.6817 122.995 29.8407 123.424C30.025 123.919 29.7675 124.469 29.2652 124.65C29.1567 124.69 29.0431 124.71 28.932 124.71V124.713Z" fill="black"/>
<path d="M16.2153 130.214C16.0487 130.214 15.8771 130.172 15.7231 130.079C15.2637 129.81 15.1122 129.222 15.3848 128.77C15.5767 128.451 20.1505 120.935 26.1581 118.38C26.6477 118.174 27.2182 118.395 27.4302 118.88C27.6423 119.365 27.4151 119.927 26.9254 120.136C21.4984 122.442 17.0937 129.674 17.0508 129.747C16.8716 130.049 16.5485 130.214 16.2178 130.214H16.2153Z" fill="black"/>
<path d="M126.658 129.87C126.509 129.87 126.355 129.835 126.214 129.762C125.739 129.519 125.555 128.941 125.803 128.474C131.177 118.285 128.859 96.5827 128.834 96.3641C128.776 95.8391 129.16 95.3668 129.692 95.3115C130.22 95.2563 130.702 95.6331 130.76 96.1581C130.861 97.07 133.166 118.654 127.522 129.358C127.35 129.685 127.012 129.873 126.661 129.873L126.658 129.87Z" fill="black"/>
<path d="M89.8407 243.108C89.7726 243.108 89.7044 243.1 89.6363 243.088C89.1138 242.977 88.7806 242.467 88.8942 241.952C88.9219 241.812 91.6405 227.304 68.317 208.054C45.5136 189.234 40.8312 182.006 37.2039 175.578C34.5308 179.095 27.0542 190.608 34.3112 201.289C43.32 214.548 65.1744 233.451 65.394 233.642C65.495 233.74 69.1273 237.448 73.06 237.483C74.736 237.516 76.2051 236.858 77.5404 235.524C82.0688 231.005 80.3725 226.747 80.3549 226.704C80.1504 226.217 80.3877 225.656 80.8824 225.455C81.3797 225.257 81.9451 225.488 82.147 225.978C82.2379 226.199 84.3405 231.459 78.9186 236.868C77.2173 238.566 75.2762 239.418 73.0347 239.395C68.2766 239.347 64.2278 235.197 64.0562 235.021C63.8997 234.891 41.856 215.824 32.7033 202.354C23.2099 188.379 36.4921 173.377 36.6284 173.229C36.8379 172.998 37.1383 172.875 37.4614 172.915C37.7719 172.95 38.0495 173.131 38.201 173.402L38.3095 173.596C41.9822 180.165 45.7786 186.96 69.564 206.59C93.8895 226.666 90.9312 241.726 90.7923 242.357C90.6939 242.806 90.2926 243.113 89.8458 243.113L89.8407 243.108Z" fill="black"/>
<path d="M114.227 243.108C114.191 243.108 114.156 243.108 114.121 243.103C113.656 243.053 113.293 242.681 113.26 242.219C113.235 241.862 110.579 206.434 98.3471 190.01C98.0316 189.585 98.1225 188.985 98.5541 188.673C98.9858 188.359 99.5916 188.452 99.9096 188.879C110.327 202.869 113.904 229.224 114.883 238.662C116.463 236.386 118.44 235.027 118.556 234.946C118.616 234.903 118.684 234.871 118.753 234.843C121.989 233.605 124.922 234.275 127.512 234.866C129.697 235.366 131.422 235.758 132.752 234.926C135.559 233.173 134.216 228.729 134.201 228.684C134.117 228.432 125.209 201.779 116.461 190.01C108.005 178.633 98.5011 179.793 98.1023 179.851C97.5773 179.921 97.0825 179.562 97.0068 179.04C96.9311 178.517 97.2946 178.035 97.8246 177.959C98.2714 177.894 108.845 176.53 118.023 188.882C126.954 200.897 135.68 227.003 136.048 228.108C136.127 228.362 137.853 234.007 133.789 236.546C131.77 237.805 129.491 237.285 127.075 236.735C124.679 236.187 122.203 235.622 119.565 236.589C119.025 236.983 116.107 239.232 115.156 242.427C115.035 242.837 114.653 243.113 114.227 243.113V243.108Z" fill="black"/>
<path d="M90.0451 220.074C84.5702 220.074 80.2917 219.273 79.9156 219.2C79.3906 219.1 79.0498 218.597 79.1508 218.08C79.2543 217.562 79.7641 217.226 80.2892 217.326C80.481 217.364 99.6244 220.939 108.742 212.732C109.138 212.38 109.751 212.405 110.11 212.794C110.471 213.184 110.443 213.789 110.049 214.146C104.711 218.952 96.5373 220.079 90.0451 220.079V220.074Z" fill="black"/>
<path d="M63.2409 105.596C56.3423 105.596 51.5817 102.745 48.6713 100.135C44.5822 96.4694 41.7879 91.184 41.0079 85.6347C40.3112 80.6708 41.9772 76.3752 45.8266 73.2124C49.1812 70.4567 54.1867 68.5575 60.3028 67.721C73.9006 65.862 82.4575 70.1879 83.7802 79.5906C85.9005 94.6908 76.8867 103.973 66.8884 105.34C65.6137 105.515 64.397 105.596 63.2409 105.596ZM65.9317 69.2408C63.8694 69.2408 61.9864 69.4242 60.5703 69.6176C54.8152 70.4039 50.1455 72.1573 47.0685 74.6845C43.7113 77.4403 42.3205 81.0376 42.9313 85.3735C43.6482 90.4856 46.2178 95.349 49.9763 98.7202C53.0685 101.494 58.4601 104.563 66.6259 103.448C79.9763 101.624 83.0532 88.3377 81.8618 79.8544C80.6225 71.0294 72.3936 69.2408 65.9317 69.2408Z" fill="black"/>
<path d="M116.489 95.4294C110.249 95.4294 106.109 92.6585 103.661 90.1967C100.409 86.9284 98.2867 82.3388 97.8298 77.6035C97.4209 73.3456 98.9505 69.7432 102.252 67.1934C105.12 64.9778 109.32 63.5534 114.393 63.0786C119.487 62.5988 123.877 63.1892 127.088 64.7818C130.818 66.6307 133.007 69.8563 133.416 74.1092C133.873 78.8621 132.888 83.7557 130.71 87.5313C128.054 92.1385 123.852 94.8365 118.558 95.3314C117.844 95.3992 117.155 95.4294 116.489 95.4294ZM117.741 64.8296C116.728 64.8296 115.671 64.8798 114.578 64.9828C109.873 65.4224 106.026 66.7086 103.449 68.6982C100.652 70.8586 99.4099 73.7952 99.7608 77.4227C100.172 81.7284 102.101 85.896 105.044 88.8577C107.457 91.2844 111.733 94.0552 118.374 93.4272C124.233 92.8796 127.401 89.4029 129.026 86.5843C131.01 83.1427 131.906 78.6611 131.485 74.2876C131.139 70.6727 129.364 68.0501 126.217 66.4875C124.001 65.3897 121.108 64.827 117.741 64.827V64.8296Z" fill="black"/>
<path d="M82.8184 80.6784C82.5786 80.6784 82.3363 80.5905 82.1495 80.4121C81.7633 80.0478 81.7506 79.4424 82.1192 79.0631C82.2075 78.9702 91.0548 70.012 99.4073 76.7771C99.8213 77.1112 99.8819 77.7141 99.5411 78.1211C99.2029 78.5305 98.592 78.5883 98.178 78.2542C91.2214 72.6196 83.8306 80.0654 83.5176 80.3845C83.3283 80.5804 83.0733 80.6784 82.8184 80.6784Z" fill="black"/>
<path d="M28.9322 102.411C28.498 102.411 28.1043 102.119 27.9932 101.685C27.5666 99.989 17.7223 60.0316 34.965 51.9979C43.994 47.7902 56.3802 44.6325 68.0949 43.5473C77.9619 42.6354 92.0544 42.7233 103.179 48.3454C103.656 48.5865 103.842 49.1618 103.6 49.6316C103.358 50.1013 102.775 50.2897 102.295 50.0461C83.1138 40.3544 51.2763 46.514 35.7929 53.7263C19.9764 61.0942 29.7727 100.823 29.8737 101.222C30.0024 101.735 29.6869 102.252 29.1669 102.38C29.0887 102.401 29.0104 102.408 28.9322 102.408V102.411Z" fill="black"/>
<path d="M11.2224 100.569C10.806 100.569 10.4198 100.303 10.2935 99.8883C10.1295 99.3407 -5.92938 45.0493 28.551 30.444C43.2013 24.2392 54.9059 21.506 63.4528 19.5114C74.9252 16.8335 80.6829 15.4895 81.8667 9.15152C81.9374 8.76215 82.2479 8.45818 82.6417 8.38533C83.0304 8.31499 83.4343 8.48582 83.6438 8.82495C83.8129 9.09626 86.8293 13.9973 87.584 19.3707C89.6917 14.1556 92.645 5.95614 92.1376 2.11515C91.9811 0.919389 92.4708 0.396874 92.9126 0.170785C93.8743 -0.331633 95.2525 0.286342 97.3602 2.17041C102.424 6.70223 113.003 20.5514 110.612 29.198C113.724 30.532 123.273 36.5434 129.432 61.3478C129.559 61.8603 129.243 62.3778 128.723 62.5034C128.203 62.6315 127.678 62.315 127.552 61.8025C120.603 33.8077 109.284 30.7379 109.171 30.7103C108.898 30.6425 108.663 30.4616 108.537 30.2154C108.411 29.9692 108.393 29.6778 108.499 29.4216C110.443 24.6788 106.659 17.4841 104.231 13.618C100.422 7.55634 95.8356 2.98684 94.0888 2.07998C94.7502 8.59384 87.6673 24.1764 87.3619 24.8446C87.1574 25.2942 86.6349 25.5128 86.1654 25.3545C85.6934 25.1938 85.4208 24.7064 85.5369 24.2266C86.5895 19.9234 84.4818 14.6631 83.0884 11.842C80.7384 17.4439 74.1175 18.9889 63.9047 21.3729C55.4285 23.3524 43.8147 26.0629 29.3208 32.2025C-3.57936 46.1346 11.9898 98.8081 12.1513 99.3382C12.3028 99.8431 12.015 100.378 11.5026 100.529C11.4092 100.557 11.3158 100.569 11.225 100.569H11.2224Z" fill="black"/>
</g>
<defs>
<clipPath id="clip0_27_855">
<rect width="143.26" height="243.108" fill="white"/>
</clipPath>
</defs>
</svg>
