<svg width="174" height="222" viewBox="0 0 174 222" fill="none" xmlns="http://www.w3.org/2000/svg">
<g clip-path="url(#clip0_27_835)">
<path d="M37.7805 77.0532C37.7805 77.0532 24.3909 28.0227 43.5695 16.9277C62.7482 5.83266 102.194 -4.90404 123.181 16.9277C144.169 38.7594 146.342 67.0332 146.342 67.0332C146.342 67.0332 162.084 65.9582 160.998 83.4953C159.913 101.032 149.056 103.538 142.182 104.252C142.182 104.252 134.945 128.231 111.784 133.242L112.87 166.528C112.87 166.528 127.345 176.011 146.162 195.876C164.978 215.738 153.398 222.003 153.398 222.003H20.2301C20.2301 222.003 11.5439 217.886 20.2301 203.393C28.9162 188.898 50.9893 165.813 50.9893 165.813L48.0948 117.139C48.0948 117.139 11.363 127.159 12.2702 90.6539C12.2702 90.6539 12.4511 70.075 37.7832 77.0532H37.7805Z" fill="white"/>
<path d="M76.1574 64.1439C77.8699 63.8773 78.8774 61.2268 78.4076 58.2239C77.9379 55.221 76.1688 53.0028 74.4563 53.2695C72.7437 53.5361 71.7363 56.1865 72.206 59.1894C72.6758 62.1923 74.4449 64.4105 76.1574 64.1439Z" fill="black"/>
<path d="M126.819 58.6893C128.532 58.4227 129.539 55.7723 129.069 52.7694C128.599 49.7665 126.83 47.5483 125.118 47.8149C123.405 48.0815 122.398 50.7319 122.868 53.7348C123.337 56.7377 125.107 58.956 126.819 58.6893Z" fill="black"/>
<path d="M106.989 48.6015C106.989 48.6015 102.736 48.4237 102.104 62.2022C101.47 75.9808 110.61 74.5501 110.61 74.5501C110.61 74.5501 118.118 74.639 115.132 60.4132C112.146 46.1874 106.989 48.6015 106.989 48.6015Z" fill="black"/>
<path d="M102.165 102.437C103.774 102.437 105.468 102.364 107.261 102.201C107.815 102.152 108.224 101.668 108.174 101.121C108.124 100.574 107.628 100.166 107.081 100.219C86.0325 102.115 78.5944 91.292 78.521 91.1822C78.2168 90.7244 77.5928 90.5963 77.1288 90.8944C76.6647 91.1926 76.531 91.8073 76.8351 92.2676C77.1288 92.7149 83.7332 102.437 102.167 102.437H102.165Z" fill="black"/>
<path d="M93.1797 137.383C98.46 137.383 104.26 136.679 110.594 135.01C111.131 134.869 111.449 134.323 111.307 133.792C111.163 133.263 110.612 132.942 110.075 133.085C90.1331 138.345 75.8599 133.616 67.4019 128.72C58.215 123.403 53.6793 116.744 53.6347 116.678C53.3279 116.221 52.7039 116.095 52.2399 116.398C51.7784 116.702 51.65 117.319 51.9567 117.777C52.1114 118.01 65.446 137.383 93.1797 137.383Z" fill="black"/>
<path d="M42.3031 98.8065C42.4185 98.8065 42.5365 98.7882 42.6492 98.7437C43.1709 98.5554 43.4384 97.9826 43.247 97.4673C43.0818 97.0201 39.0625 86.4639 30.0356 84.4918C27.4112 83.919 25.0987 84.2747 23.1612 85.5615C19.4592 88.0149 18.552 92.9582 18.5127 93.1674C18.4183 93.7088 18.7827 94.2215 19.3307 94.3182C19.8787 94.415 20.3978 94.0515 20.4948 93.5101C20.5026 93.4682 21.3049 89.1788 24.2912 87.2093C25.7489 86.2468 27.5396 85.9826 29.6004 86.4377C37.5445 88.1744 41.3226 98.0584 41.3593 98.1578C41.5087 98.5606 41.8941 98.8091 42.3031 98.8091V98.8065Z" fill="black"/>
<path d="M29.0944 104.534C29.4379 104.534 29.7735 104.362 29.9596 104.048C30.0042 103.972 34.5793 96.4445 40.2162 94.0409C40.7248 93.8238 40.9608 93.2379 40.7405 92.7331C40.5203 92.2283 39.9278 91.9955 39.4191 92.2126C33.1766 94.8726 28.4258 102.698 28.2292 103.03C27.946 103.504 28.1033 104.113 28.5805 104.393C28.7405 104.487 28.9187 104.534 29.0918 104.534H29.0944Z" fill="black"/>
<path d="M143.807 104.176C144.172 104.176 144.52 103.983 144.701 103.64C150.569 92.4874 148.699 77.3854 148.616 76.7498C148.545 76.2058 148.049 75.8134 147.491 75.8893C146.94 75.9599 146.55 76.4595 146.62 77.0035C146.639 77.1526 148.49 92.1316 142.918 102.724C142.661 103.211 142.853 103.813 143.346 104.066C143.493 104.142 143.652 104.179 143.807 104.179V104.176Z" fill="black"/>
<path d="M90.6182 35.8327C84.9104 30.7743 87.5061 18.9992 90.7912 4.09338L91.4388 1.15092C91.5253 0.753359 91.8478 0.447344 92.2542 0.37934C92.6527 0.311337 131.537 -5.71743 140.092 35.8772C140.179 36.3009 139.979 36.7324 139.599 36.9443C139.219 37.1561 138.742 37.1012 138.422 36.8031C138.346 36.7351 130.722 29.9295 116.155 34.7656C108.942 37.1614 103.253 38.3541 98.8953 38.3541C95.2352 38.3541 92.5137 37.5119 90.6182 35.8327ZM137.562 33.8004C129.023 -0.826416 98.3473 1.59294 93.2583 2.2442L92.7602 4.51709C89.614 18.79 87.1285 30.0655 91.9632 34.3497C95.4712 37.4595 103.177 36.9757 115.515 32.8772C119.595 31.5223 123.168 31.0175 126.23 31.0175C131.579 31.0175 135.37 32.5554 137.565 33.8004H137.562Z" fill="black"/>
<path d="M22.9386 208.789C25.4634 208.789 28.1823 208.509 31.0977 207.947C31.5697 207.824 41.2206 205.214 45.5466 196.679C49.7678 188.354 45.5466 177.241 40.649 170.255C40.3318 169.805 39.7078 169.69 39.249 170.003C38.7928 170.315 38.6801 170.937 38.9973 171.39C43.5803 177.928 47.5733 188.241 43.748 195.787C39.8258 203.527 30.7412 205.982 30.6494 206.009C20.5921 207.942 13.0517 206.336 8.3036 201.212C-3.60735 188.362 5.18625 157.452 5.27801 157.14L23.5705 58.8805C23.581 58.823 23.5862 58.7654 23.5862 58.7079C23.5862 58.4516 24.0031 33.0287 42.8802 20.0008C59.6284 8.435 81.7671 3.33997 87.1917 2.21791C86.8194 7.00692 84.5856 18.8683 84.5594 18.9991C83.4477 24.7532 81.2742 31.2554 78.1044 38.3278C75.3306 44.5135 71.7675 51.1935 67.5123 58.1848C63.5586 64.6791 59.0962 71.3147 54.2458 77.911C50.2318 83.3696 47.4343 86.7672 47.4055 86.8012C47.0542 87.2275 47.1197 87.8552 47.5471 88.2031C47.9771 88.5483 48.6115 88.4882 48.9629 88.0618C48.9891 88.0278 51.8233 84.5884 55.8714 79.0828C60.7558 72.4393 65.2523 65.7541 69.2348 59.2101C73.532 52.1482 77.137 45.3949 79.9423 39.1333C83.1777 31.925 85.3957 25.2737 86.5362 19.3679C86.649 18.7663 89.3049 4.67127 89.2551 0.980769C89.2524 0.687831 89.1187 0.410586 88.8906 0.2275C88.6625 0.0417978 88.3636 -0.0366678 88.0726 0.0156426C87.8078 0.0627219 61.2251 4.90666 41.7292 18.3661C22.5821 31.585 21.6198 56.8482 21.5779 58.598L3.31689 156.685C2.9577 157.901 -5.85426 188.882 6.8144 202.556C10.658 206.704 16.0642 208.792 22.9412 208.792L22.9386 208.789Z" fill="black"/>
<path d="M55.1895 184.085C56.5083 184.085 57.8847 183.944 59.2769 183.607C63.7576 182.516 67.4701 179.592 70.3069 174.913C75.173 166.888 73.0022 154.998 63.852 139.567C57.1375 128.241 48.9259 119.074 48.8447 118.98C48.475 118.569 47.8405 118.535 47.4236 118.899C47.0094 119.265 46.9727 119.895 47.3424 120.306C47.6622 120.662 79.3181 156.191 68.5818 173.89C66.0333 178.091 62.7482 180.709 58.8128 181.669C51.9148 183.35 45.2344 179.406 45.1689 179.364C44.6969 179.079 44.0756 179.226 43.7872 179.697C43.4988 180.165 43.6482 180.777 44.1228 181.065C44.3692 181.211 49.2091 184.083 55.1921 184.083L55.1895 184.085Z" fill="black"/>
<path d="M161.903 219.06C162.157 219.06 162.414 218.963 162.611 218.772C177.146 204.544 177.781 182.312 164.441 154.47C154.457 133.632 140.016 116.751 139.872 116.581C139.51 116.163 138.875 116.113 138.453 116.469C138.031 116.825 137.979 117.455 138.34 117.873C138.909 118.535 194.875 184.397 161.198 217.357C160.802 217.744 160.799 218.375 161.19 218.765C161.386 218.961 161.646 219.06 161.905 219.06H161.903Z" fill="black"/>
<path d="M129.958 195.536C133.267 195.536 135.949 194.739 136.143 194.678C140.016 193.245 142.604 190.606 143.896 186.814C149.648 169.93 127.756 135.251 126.823 133.787C126.527 133.321 125.905 133.182 125.436 133.475C124.967 133.768 124.825 134.383 125.121 134.848C125.344 135.199 147.441 170.189 141.99 186.181C140.886 189.421 138.76 191.587 135.496 192.798C135.477 192.798 127.887 195.045 123.105 191.71C120.648 189.997 119.309 187.049 119.122 182.95C119.099 182.401 118.58 181.951 118.074 182.001C117.518 182.025 117.088 182.49 117.114 183.039C117.329 187.792 118.957 191.257 121.954 193.344C124.411 195.055 127.376 195.542 129.961 195.542L129.958 195.536Z" fill="black"/>
<path d="M76.2138 81.183C81.2792 81.183 85.4427 79.6817 88.5941 76.7131C93.2242 72.3556 95.6442 64.9066 95.7831 54.5806C95.8513 49.4437 94.6007 45.7793 92.0601 43.6895C89.3728 41.4794 86.2056 41.8613 85.6236 41.9581C85.2906 41.9712 83.7647 42.0339 81.5257 42.1673C80.9698 42.2013 80.5477 42.6721 80.5818 43.2214C80.6159 43.7706 81.1245 44.1891 81.6463 44.1551C84.1553 44.0034 85.7625 43.9433 85.7678 43.9433C85.8202 43.9433 85.8726 43.9354 85.9251 43.9249C85.946 43.9223 88.6334 43.4437 90.7912 45.2353C92.8257 46.9276 93.8273 50.061 93.7669 54.5518C93.6359 64.3234 91.4283 71.2937 87.2045 75.2693C84.2681 78.0339 80.2829 79.3391 75.3434 79.1717C69.8297 78.9755 65.4093 77.9973 61.8279 76.1821C61.3297 75.9337 60.7267 76.1246 60.4724 76.6163C60.2207 77.1054 60.4147 77.7044 60.9102 77.9555C64.7591 79.904 69.4548 80.9528 75.27 81.1595C75.5872 81.1699 75.9018 81.1778 76.2112 81.1778L76.2138 81.183Z" fill="black"/>
<path d="M116.753 54.5519C115.851 49.1509 116.493 45.225 118.659 42.8789C120.599 40.7812 123.074 40.7315 123.64 40.7367C125.197 40.5746 144.2 38.6417 151.476 40.9591C159.42 43.4935 159.087 53.4142 159.069 53.8353C159.069 53.864 159.066 53.8928 159.064 53.9216C157.121 68.66 150.744 75.0942 137.745 75.4421C137.46 75.4499 137.177 75.4525 136.896 75.4525C125.394 75.4525 119.167 68.9687 116.755 54.5519H116.753ZM150.857 42.8527C143.839 40.6138 123.981 42.7036 123.782 42.7245C123.721 42.7298 123.661 42.7298 123.598 42.7245C123.575 42.7245 121.613 42.6278 120.145 44.218C118.438 46.0646 117.953 49.5223 118.74 54.225C121.042 67.9931 126.765 73.7655 137.688 73.4464C149.785 73.1247 155.22 67.5903 157.058 53.7097C157.071 53.0768 157.118 44.8483 150.857 42.8501V42.8527Z" fill="black"/>
<path d="M94.7736 55.5615C95.1328 55.5615 95.4815 55.3706 95.6624 55.0358C95.6913 54.9835 98.6015 49.7184 104.181 48.3976C108.014 47.4952 112.253 48.6147 116.786 51.7428C117.24 52.0567 117.869 51.9442 118.187 51.4944C118.504 51.0445 118.391 50.4246 117.937 50.1081C112.906 46.6373 108.119 45.4107 103.69 46.4673C97.225 48.0079 94.0212 53.8509 93.8875 54.0994C93.6279 54.5833 93.8141 55.1849 94.3017 55.4438C94.4512 55.5223 94.6137 55.5615 94.7736 55.5615Z" fill="black"/>
<path d="M89.8343 203.202C97.6709 203.202 106.045 201.11 114.259 195.345C114.713 195.029 114.82 194.406 114.498 193.959C114.181 193.512 113.549 193.402 113.095 193.724C84.5749 213.732 53.7711 187.287 53.4643 187.017C53.0501 186.654 52.413 186.693 52.0433 187.104C51.6762 187.514 51.7129 188.142 52.1298 188.508C52.3605 188.71 69.2163 203.202 89.8343 203.202Z" fill="black"/>
</g>
<defs>
<clipPath id="clip0_27_835">
<rect width="174" height="222" fill="white"/>
</clipPath>
</defs>
</svg>
