{
    "asset" : {
        "generator" : "Khronos glTF Blender I/O v1.5.17",
        "version" : "2.0"
    },
    "scene" : 0,
    "scenes" : [
        {
            "name" : "Scene",
            "nodes" : [
                0
            ]
        }
    ],
    "nodes" : [
        {
            "mesh" : 0,
            "name" : "Apollo",
            "scale" : [
                -0.061662543565034866,
                -0.10756392776966095,
                -0.061662543565034866
            ]
        }
    ],
    "materials" : [
        {
            "doubleSided" : true,
            "name" : "Material",
            "pbrMetallicRoughness" : {
                "baseColorFactor" : [
                    0.800000011920929,
                    0.800000011920929,
                    0.800000011920929,
                    1
                ],
                "metallicFactor" : 0,
                "roughnessFactor" : 0.5
            }
        }
    ],
    "meshes" : [
        {
            "name" : "Circle.004",
            "primitives" : [
                {
                    "attributes" : {
                        "POSITION" : 0,
                        "NORMAL" : 1
                    },
                    "indices" : 2,
                    "material" : 0
                }
            ]
        }
    ],
    "accessors" : [
        {
            "bufferView" : 0,
            "componentType" : 5126,
            "count" : 2080,
            "max" : [
                22.72789192199707,
                20.560243606567383,
                50.21529769897461
            ],
            "min" : [
                -23.071121215820312,
                -20.575992584228516,
                0.09292104840278625
            ],
            "type" : "VEC3"
        },
        {
            "bufferView" : 1,
            "componentType" : 5126,
            "count" : 2080,
            "type" : "VEC3"
        },
        {
            "bufferView" : 2,
            "componentType" : 5123,
            "count" : 3198,
            "type" : "SCALAR"
        }
    ],
    "bufferViews" : [
        {
            "buffer" : 0,
            "byteLength" : 24960,
            "byteOffset" : 0
        },
        {
            "buffer" : 0,
            "byteLength" : 24960,
            "byteOffset" : 24960
        },
        {
            "buffer" : 0,
            "byteLength" : 6396,
            "byteOffset" : 49920
        }
    ],
    "buffers" : [
        {
            "byteLength" : 56316,
            "uri" : "data:application/octet-stream;base64,"
        }
    ]
}
